<svg aria-hidden="true" style="position:absolute;width:0;height:0" xmlns="http://www.w3.org/2000/svg" overflow="hidden"><defs><symbol id="icon-facebook" viewBox="0 0 32 32"><path fill="var(--color1, #afb1b8)" d="M21.328 5.312h2.923V.224A36.478 36.478 0 0020.144 0h-.157.008c-4.213 0-7.099 2.65-7.099 7.52V12H8.25v5.688h4.646V32h5.698V17.69h4.461l.707-5.688h-5.168V8.08c0-1.643.443-2.768 2.734-2.768z"/></symbol><symbol id="icon-instagram" viewBox="0 0 32 32"><path fill="var(--color1, #afb1b8)" d="M23.258 13.004c-.033-.773-.159-1.304-.337-1.764a3.57 3.57 0 00-.841-1.29l-.001-.001a3.583 3.583 0 00-1.263-.83l-.024-.008c-.463-.179-.991-.304-1.764-.337-.778-.037-1.025-.046-3.001-.046s-2.222.009-2.998.043c-.773.033-1.304.159-1.764.338a3.58 3.58 0 00-1.29.84l-.001.001c-.36.354-.645.784-.83 1.263l-.008.024c-.18.463-.304.991-.338 1.764-.037.778-.046 1.025-.046 3.001s.009 2.222.043 2.998c.034.773.159 1.304.338 1.764.194.505.48.935.84 1.29h.001c.364.369.804.656 1.287.838.463.18.992.305 1.764.338.776.034 1.023.043 2.998.043s2.222-.009 2.998-.043c.773-.033 1.304-.159 1.764-.337a3.741 3.741 0 002.12-2.104l.009-.025c.179-.463.304-.992.338-1.764.034-.776.042-1.023.042-2.998s-.003-2.222-.036-2.998zm-1.309 5.939c-.032.711-.151 1.094-.25 1.349a2.428 2.428 0 01-1.365 1.376l-.016.006c-.255.099-.641.218-1.349.249-.767.034-.997.043-2.938.043s-2.174-.009-2.938-.043c-.711-.031-1.094-.151-1.35-.25a2.237 2.237 0 01-.834-.542l-.001-.001a2.268 2.268 0 01-.538-.819l-.005-.016c-.099-.256-.218-.642-.249-1.35-.034-.767-.043-.998-.043-2.938s.009-2.175.043-2.938c.031-.711.151-1.094.249-1.35.122-.328.308-.608.545-.835l.001-.001c.229-.235.509-.42.821-.537l.016-.005c.255-.099.641-.218 1.349-.25.767-.033.998-.042 2.938-.042 1.943 0 2.174.008 2.938.042.711.031 1.094.151 1.35.25.315.116.602.301.835.543.241.236.426.52.543.836.099.255.218.641.249 1.349.034.767.043.997.043 2.938s-.009 2.167-.043 2.935z"/><path fill="var(--color1, #afb1b8)" d="M16.027 12.265a3.737 3.737 0 00-3.737 3.737v.001a3.737 3.737 0 103.737-3.737h-.001zm0 6.16a2.424 2.424 0 110-4.848 2.424 2.424 0 110 4.848zm4.757-6.308a.873.873 0 01-1.746 0 .873.873 0 011.746 0z"/></symbol><symbol id="icon-linkedin" viewBox="0 0 30 32"><path fill="var(--color1, #afb1b8)" d="M29.703 32h.011V15.23c0-8.199-1.765-14.517-11.353-14.517-4.61 0-7.703 2.528-8.967 4.928h-.133V1.479H.168v30.519h9.467V16.887c0-3.979.754-7.829 5.682-7.829 4.855 0 4.928 4.542 4.928 8.082v14.859h9.456z"/></symbol><symbol id="icon-twitter" viewBox="0 0 32 32"><path fill="var(--color1, #afb1b8)" d="M23.273 11.49c-.5.224-1.08.39-1.688.467l-.031.003a2.98 2.98 0 001.306-1.627l.006-.021a5.851 5.851 0 01-1.853.715l-.038.006a2.981 2.981 0 00-5.158 2.036v.003c0 .236.02.464.07.68a8.443 8.443 0 01-6.147-3.119 2.984 2.984 0 00.917 3.986 2.937 2.937 0 01-1.362-.375l.015.008v.033a2.995 2.995 0 002.37 2.927l.02.003a2.906 2.906 0 01-.756.098h-.028.001-.047c-.183 0-.362-.019-.534-.054l.017.003a3.012 3.012 0 002.786 2.078 5.948 5.948 0 01-3.69 1.271h-.047c-.238 0-.472-.015-.701-.044l.027.003a8.317 8.317 0 004.547 1.338h.029-.002c5.487 0 8.487-4.545 8.487-8.486 0-.131-.004-.259-.011-.385a5.978 5.978 0 001.481-1.526l.014-.021z"/></symbol></defs></svg>